<mxfile host="app.diagrams.net" modified="2023-09-01T16:41:13.517Z" agent="Mozilla/5.0 (Macintosh; Intel Mac OS X 10_15_7) AppleWebKit/537.36 (KHTML, like Gecko) Chrome/116.0.0.0 Safari/537.36" etag="EpVQhdi7tBTRQrd1Y-4x" version="21.7.1" type="github">
  <diagram name="Page-1" id="pionsqpKZHJQi0cGghkE">
    <mxGraphModel dx="2073" dy="1222" grid="1" gridSize="10" guides="1" tooltips="1" connect="1" arrows="1" fold="1" page="1" pageScale="1" pageWidth="827" pageHeight="1169" math="0" shadow="0">
      <root>
        <mxCell id="0" />
        <mxCell id="1" parent="0" />
        <mxCell id="qivVjun7uS5Yy_yrhOOn-16" style="edgeStyle=orthogonalEdgeStyle;rounded=0;sketch=1;hachureGap=4;jiggle=2;curveFitting=1;orthogonalLoop=1;jettySize=auto;html=1;exitX=0.5;exitY=1;exitDx=0;exitDy=0;entryX=0.334;entryY=-0.009;entryDx=0;entryDy=0;entryPerimeter=0;fontFamily=Architects Daughter;fontSource=https%3A%2F%2Ffonts.googleapis.com%2Fcss%3Ffamily%3DArchitects%2BDaughter;fontSize=16;" edge="1" parent="1" source="qivVjun7uS5Yy_yrhOOn-6" target="qivVjun7uS5Yy_yrhOOn-9">
          <mxGeometry relative="1" as="geometry" />
        </mxCell>
        <mxCell id="qivVjun7uS5Yy_yrhOOn-17" value="&lt;font face=&quot;Comic Sans MS&quot;&gt;Add/Delete/Rename/ChangeEntry&lt;/font&gt;" style="edgeLabel;html=1;align=center;verticalAlign=middle;resizable=0;points=[];fontSize=20;fontFamily=Architects Daughter;" vertex="1" connectable="0" parent="qivVjun7uS5Yy_yrhOOn-16">
          <mxGeometry x="-0.1457" y="1" relative="1" as="geometry">
            <mxPoint y="1" as="offset" />
          </mxGeometry>
        </mxCell>
        <mxCell id="qivVjun7uS5Yy_yrhOOn-6" value="&lt;font face=&quot;Comic Sans MS&quot;&gt;File List&lt;/font&gt;" style="rounded=0;whiteSpace=wrap;html=1;sketch=1;hachureGap=4;jiggle=2;curveFitting=1;fontFamily=Architects Daughter;fontSource=https%3A%2F%2Ffonts.googleapis.com%2Fcss%3Ffamily%3DArchitects%2BDaughter;fontSize=20;fillColor=#d5e8d4;strokeColor=#82b366;" vertex="1" parent="1">
          <mxGeometry x="273" y="210" width="110" height="170" as="geometry" />
        </mxCell>
        <mxCell id="qivVjun7uS5Yy_yrhOOn-18" style="edgeStyle=orthogonalEdgeStyle;rounded=0;sketch=1;hachureGap=4;jiggle=2;curveFitting=1;orthogonalLoop=1;jettySize=auto;html=1;exitX=0.5;exitY=1;exitDx=0;exitDy=0;entryX=1;entryY=0.5;entryDx=0;entryDy=0;fontFamily=Architects Daughter;fontSource=https%3A%2F%2Ffonts.googleapis.com%2Fcss%3Ffamily%3DArchitects%2BDaughter;fontSize=16;" edge="1" parent="1" source="qivVjun7uS5Yy_yrhOOn-7" target="qivVjun7uS5Yy_yrhOOn-13">
          <mxGeometry relative="1" as="geometry" />
        </mxCell>
        <mxCell id="qivVjun7uS5Yy_yrhOOn-19" style="edgeStyle=orthogonalEdgeStyle;rounded=0;sketch=1;hachureGap=4;jiggle=2;curveFitting=1;orthogonalLoop=1;jettySize=auto;html=1;exitX=0.5;exitY=1;exitDx=0;exitDy=0;entryX=1;entryY=0.5;entryDx=0;entryDy=0;fontFamily=Architects Daughter;fontSource=https%3A%2F%2Ffonts.googleapis.com%2Fcss%3Ffamily%3DArchitects%2BDaughter;fontSize=16;" edge="1" parent="1" source="qivVjun7uS5Yy_yrhOOn-7" target="qivVjun7uS5Yy_yrhOOn-14">
          <mxGeometry relative="1" as="geometry" />
        </mxCell>
        <mxCell id="qivVjun7uS5Yy_yrhOOn-21" style="edgeStyle=orthogonalEdgeStyle;rounded=0;sketch=1;hachureGap=4;jiggle=2;curveFitting=1;orthogonalLoop=1;jettySize=auto;html=1;exitX=0.5;exitY=1;exitDx=0;exitDy=0;entryX=1;entryY=0.5;entryDx=0;entryDy=0;fontFamily=Architects Daughter;fontSource=https%3A%2F%2Ffonts.googleapis.com%2Fcss%3Ffamily%3DArchitects%2BDaughter;fontSize=16;" edge="1" parent="1" source="qivVjun7uS5Yy_yrhOOn-7" target="qivVjun7uS5Yy_yrhOOn-15">
          <mxGeometry relative="1" as="geometry" />
        </mxCell>
        <mxCell id="qivVjun7uS5Yy_yrhOOn-22" value="&lt;font face=&quot;Comic Sans MS&quot;&gt;Edit Code&lt;/font&gt;" style="edgeLabel;html=1;align=center;verticalAlign=middle;resizable=0;points=[];fontSize=20;fontFamily=Architects Daughter;" vertex="1" connectable="0" parent="qivVjun7uS5Yy_yrhOOn-21">
          <mxGeometry x="-0.5851" y="4" relative="1" as="geometry">
            <mxPoint y="-1" as="offset" />
          </mxGeometry>
        </mxCell>
        <mxCell id="qivVjun7uS5Yy_yrhOOn-7" value="&lt;font face=&quot;Comic Sans MS&quot;&gt;Editor&lt;/font&gt;" style="rounded=0;whiteSpace=wrap;html=1;sketch=1;hachureGap=4;jiggle=2;curveFitting=1;fontFamily=Architects Daughter;fontSource=https%3A%2F%2Ffonts.googleapis.com%2Fcss%3Ffamily%3DArchitects%2BDaughter;fontSize=20;fillColor=#ffe6cc;strokeColor=#d79b00;" vertex="1" parent="1">
          <mxGeometry x="393" y="210" width="370" height="170" as="geometry" />
        </mxCell>
        <mxCell id="qivVjun7uS5Yy_yrhOOn-24" style="edgeStyle=orthogonalEdgeStyle;rounded=0;sketch=1;hachureGap=4;jiggle=2;curveFitting=1;orthogonalLoop=1;jettySize=auto;html=1;exitX=0.5;exitY=1;exitDx=0;exitDy=0;entryX=0.5;entryY=1;entryDx=0;entryDy=0;fontFamily=Architects Daughter;fontSource=https%3A%2F%2Ffonts.googleapis.com%2Fcss%3Ffamily%3DArchitects%2BDaughter;fontSize=16;" edge="1" parent="1" source="qivVjun7uS5Yy_yrhOOn-9" target="qivVjun7uS5Yy_yrhOOn-23">
          <mxGeometry relative="1" as="geometry" />
        </mxCell>
        <mxCell id="qivVjun7uS5Yy_yrhOOn-25" value="&lt;font face=&quot;Comic Sans MS&quot;&gt;watch&lt;/font&gt;" style="edgeLabel;html=1;align=center;verticalAlign=middle;resizable=0;points=[];fontSize=20;fontFamily=Architects Daughter;" vertex="1" connectable="0" parent="qivVjun7uS5Yy_yrhOOn-24">
          <mxGeometry x="-0.1776" y="-4" relative="1" as="geometry">
            <mxPoint x="-1" as="offset" />
          </mxGeometry>
        </mxCell>
        <mxCell id="qivVjun7uS5Yy_yrhOOn-9" value="" style="rounded=0;whiteSpace=wrap;html=1;sketch=1;hachureGap=4;jiggle=2;curveFitting=1;fontFamily=Architects Daughter;fontSource=https%3A%2F%2Ffonts.googleapis.com%2Fcss%3Ffamily%3DArchitects%2BDaughter;fontSize=20;fillColor=#f8cecc;strokeColor=#b85450;" vertex="1" parent="1">
          <mxGeometry x="273" y="520" width="167" height="230" as="geometry" />
        </mxCell>
        <mxCell id="qivVjun7uS5Yy_yrhOOn-10" value="&lt;font face=&quot;Comic Sans MS&quot;&gt;fileStore&lt;/font&gt;" style="text;html=1;strokeColor=none;fillColor=none;align=center;verticalAlign=middle;whiteSpace=wrap;rounded=0;fontSize=20;fontFamily=Architects Daughter;" vertex="1" parent="1">
          <mxGeometry x="303" y="530" width="107" height="30" as="geometry" />
        </mxCell>
        <mxCell id="qivVjun7uS5Yy_yrhOOn-13" value="&lt;font face=&quot;Comic Sans MS&quot;&gt;File&lt;/font&gt;" style="rounded=0;whiteSpace=wrap;html=1;sketch=1;hachureGap=4;jiggle=2;curveFitting=1;fontFamily=Architects Daughter;fontSource=https%3A%2F%2Ffonts.googleapis.com%2Fcss%3Ffamily%3DArchitects%2BDaughter;fontSize=20;fillColor=#dae8fc;strokeColor=#6c8ebf;" vertex="1" parent="1">
          <mxGeometry x="293" y="570" width="127" height="45" as="geometry" />
        </mxCell>
        <mxCell id="qivVjun7uS5Yy_yrhOOn-14" value="&lt;font face=&quot;Comic Sans MS&quot;&gt;File&lt;/font&gt;" style="rounded=0;whiteSpace=wrap;html=1;sketch=1;hachureGap=4;jiggle=2;curveFitting=1;fontFamily=Architects Daughter;fontSource=https%3A%2F%2Ffonts.googleapis.com%2Fcss%3Ffamily%3DArchitects%2BDaughter;fontSize=20;fillColor=#dae8fc;strokeColor=#6c8ebf;" vertex="1" parent="1">
          <mxGeometry x="293" y="630" width="127" height="45" as="geometry" />
        </mxCell>
        <mxCell id="qivVjun7uS5Yy_yrhOOn-15" value="&lt;font face=&quot;Comic Sans MS&quot;&gt;File&lt;/font&gt;" style="rounded=0;whiteSpace=wrap;html=1;sketch=1;hachureGap=4;jiggle=2;curveFitting=1;fontFamily=Architects Daughter;fontSource=https%3A%2F%2Ffonts.googleapis.com%2Fcss%3Ffamily%3DArchitects%2BDaughter;fontSize=20;fillColor=#dae8fc;strokeColor=#6c8ebf;" vertex="1" parent="1">
          <mxGeometry x="293" y="692" width="127" height="45" as="geometry" />
        </mxCell>
        <mxCell id="qivVjun7uS5Yy_yrhOOn-27" style="edgeStyle=orthogonalEdgeStyle;rounded=0;sketch=1;hachureGap=4;jiggle=2;curveFitting=1;orthogonalLoop=1;jettySize=auto;html=1;exitX=0.5;exitY=0;exitDx=0;exitDy=0;entryX=0.5;entryY=1;entryDx=0;entryDy=0;fontFamily=Architects Daughter;fontSource=https%3A%2F%2Ffonts.googleapis.com%2Fcss%3Ffamily%3DArchitects%2BDaughter;fontSize=16;" edge="1" parent="1" source="qivVjun7uS5Yy_yrhOOn-23" target="qivVjun7uS5Yy_yrhOOn-26">
          <mxGeometry relative="1" as="geometry" />
        </mxCell>
        <mxCell id="qivVjun7uS5Yy_yrhOOn-28" value="&lt;font face=&quot;Comic Sans MS&quot;&gt;update&lt;/font&gt;" style="edgeLabel;html=1;align=center;verticalAlign=middle;resizable=0;points=[];fontSize=20;fontFamily=Architects Daughter;" vertex="1" connectable="0" parent="qivVjun7uS5Yy_yrhOOn-27">
          <mxGeometry x="-0.084" y="3" relative="1" as="geometry">
            <mxPoint y="1" as="offset" />
          </mxGeometry>
        </mxCell>
        <mxCell id="qivVjun7uS5Yy_yrhOOn-23" value="&lt;font face=&quot;Comic Sans MS&quot;&gt;Compiler&lt;br&gt;run&lt;br&gt;&lt;/font&gt;" style="ellipse;whiteSpace=wrap;html=1;aspect=fixed;sketch=1;hachureGap=4;jiggle=2;curveFitting=1;fontFamily=Architects Daughter;fontSource=https%3A%2F%2Ffonts.googleapis.com%2Fcss%3Ffamily%3DArchitects%2BDaughter;fontSize=20;fillColor=#e1d5e7;strokeColor=#9673a6;" vertex="1" parent="1">
          <mxGeometry x="853" y="550" width="160" height="160" as="geometry" />
        </mxCell>
        <mxCell id="qivVjun7uS5Yy_yrhOOn-26" value="&lt;font face=&quot;Comic Sans MS&quot;&gt;Preview&lt;br&gt;(iframe)&lt;br&gt;&lt;/font&gt;" style="rounded=0;whiteSpace=wrap;html=1;sketch=1;hachureGap=4;jiggle=2;curveFitting=1;fontFamily=Architects Daughter;fontSource=https%3A%2F%2Ffonts.googleapis.com%2Fcss%3Ffamily%3DArchitects%2BDaughter;fontSize=20;fillColor=#e1d5e7;strokeColor=#9673a6;" vertex="1" parent="1">
          <mxGeometry x="773" y="210" width="320" height="170" as="geometry" />
        </mxCell>
      </root>
    </mxGraphModel>
  </diagram>
</mxfile>
